<?xml version="1.0" encoding="UTF-8" standalone="no"?>
<!DOCTYPE svg PUBLIC "-//W3C//DTD SVG 1.1//EN" "http://www.w3.org/Graphics/SVG/1.1/DTD/svg11.dtd">
<svg width="100%" height="100%" viewBox="0 0 1992 1718" version="1.1" xmlns="http://www.w3.org/2000/svg" xmlns:xlink="http://www.w3.org/1999/xlink" xml:space="preserve" xmlns:serif="http://www.serif.com/" style="fillRule:evenodd;clip-rule:evenodd;stroke-linejoin:round;stroke-miterlimit:1.41421;">
    <g transform="matrix(1,0,0,1,0,-3.34167)">
        <g transform="matrix(4.16667,0,0,4.16667,0,0)">
            <path d="M412.206,413.001L0,413.001L0,0.802L412.206,0.802L412.206,66.719L397.635,66.719L397.635,15.372L14.57,15.372L14.57,398.43L397.635,398.43L397.635,199.981L412.206,199.981L412.206,413.001Z" style="fill:rgb(190,30,45);fillRule:nonzero;"/>
            <path d="M36.349,97.915L58.513,97.915C60.511,108.033 62.385,116.064 64.137,122.007C65.889,127.951 68.435,134.786 71.779,142.514C73.711,138.42 75.529,133.91 77.236,128.982C78.938,124.054 80.428,119.044 81.705,113.952C82.983,108.86 84.096,103.515 85.045,97.915L107.21,97.915C105.769,105.61 103.678,113.854 100.944,122.646C98.209,131.438 95.008,140.131 91.336,148.727C87.665,157.323 83.735,165.272 79.544,172.574L64.015,172.574C57.429,160.262 52.174,149.005 48.24,138.806C44.31,128.605 41.543,120.37 39.939,114.099C38.33,107.829 37.135,102.434 36.349,97.915Z" style="fill:rgb(190,30,45);fillRule:nonzero;"/>
            <path d="M113.202,97.915L132.112,97.915C137.09,97.915 142.027,98.202 146.922,98.775C151.817,99.348 156.901,100.813 162.173,103.17C167.445,105.528 171.865,109.314 175.435,114.537C179.004,119.76 180.788,126.596 180.788,135.04C180.788,142.276 179.528,148.461 177.007,153.602C174.485,158.743 171.145,162.82 166.986,165.832C162.828,168.845 158.309,171.002 153.43,172.312C148.551,173.622 143.525,174.277 138.351,174.277L138.351,157.482C145.62,157.482 150.99,155.436 154.462,151.343C157.474,147.712 158.98,142.342 158.98,135.24C158.98,128.691 157.089,123.616 153.307,120.018C149.525,116.416 144.343,114.615 137.761,114.615L134.421,114.615L134.421,172.574L113.202,172.574L113.202,97.915Z" style="fill:rgb(190,30,45);fillRule:nonzero;"/>
            <path d="M274.084,160.196L260.715,160.196C260.321,157.806 259.769,155.276 259.066,152.607C258.362,149.939 257.469,147.196 256.388,144.38C255.304,141.564 253.928,138.748 252.258,135.932C250.589,133.116 248.702,130.71 246.606,128.712L246.606,172.574L225.387,172.574L225.387,97.915L246.606,97.915C250.638,101.549 254.739,106.682 258.919,113.314C263.097,119.944 265.873,125.617 267.252,130.333L267.645,130.333C268.234,128.04 269.241,125.429 270.67,122.499C272.094,119.568 273.805,116.53 275.802,113.387C277.804,110.243 279.875,107.321 282.024,104.62C284.17,101.918 286.224,99.684 288.192,97.915L309.412,97.915L309.412,172.574L288.192,172.574L288.192,128.712C286.257,130.775 284.464,133.075 282.81,135.613C281.157,138.151 279.523,141.49 277.919,145.633C276.31,149.775 275.033,154.629 274.084,160.196Z" style="fill:rgb(190,30,45);fillRule:nonzero;"/>
            <path d="M341.571,97.915L361.816,97.915C365.516,103.776 368.791,109.932 371.639,116.383C374.488,122.834 376.993,129.408 379.155,136.104C381.316,142.8 383.121,149.235 384.561,155.407C386.003,161.58 387.148,167.302 388,172.574L366.727,172.574C366.465,171.231 366.138,169.381 365.745,167.023C365.287,164.142 364.845,161.801 364.419,160L343.388,160C344.436,154.986 345.714,149.787 347.224,144.413L360.195,144.413C359.377,141.143 358.423,138.04 357.342,135.113C356.261,132.183 355.189,129.551 354.125,127.21C353.061,124.873 352.299,123.227 351.841,122.277C349.45,127.483 347.277,132.887 345.329,138.486C343.381,144.085 341.67,149.84 340.196,155.751C338.722,161.662 337.544,167.269 336.66,172.574L315.436,172.574C316.616,166.418 318.13,159.828 319.98,152.804C321.83,145.78 323.946,138.822 326.32,131.929C328.694,125.036 331.158,118.7 333.713,112.92C336.266,107.141 338.886,102.139 341.571,97.915Z" style="fill:rgb(190,30,45);fillRule:nonzero;"/>
            <rect x="394.008" y="97.915" width="21.219" height="74.659" style="fill:rgb(190,30,45);fillRule:nonzero;"/>
            <path d="M477.215,97.915L477.215,114.615L455.737,114.615C451.673,114.615 449.642,116.056 449.642,118.938C449.642,119.953 449.929,120.894 450.502,121.762C451.075,122.629 451.96,123.554 453.159,124.537C454.354,125.519 456.327,126.976 459.077,128.908C463.862,132.314 467.465,135.04 469.891,137.086C472.314,139.133 474.271,141.499 475.761,144.184C477.255,146.869 478,150.095 478,153.86C478,159.263 476.468,163.356 473.408,166.14C470.35,168.922 466.953,170.691 463.219,171.444C459.487,172.197 455.868,172.574 452.369,172.574L424.282,172.574L424.282,155.874L447.834,155.874C452.053,155.874 454.162,154.466 454.162,151.65C454.162,150.766 453.998,149.988 453.671,149.316C453.343,148.646 452.917,148.031 452.393,147.475C451.869,146.918 450.923,146.099 449.548,145.019C448.173,143.938 446.994,143.005 446.011,142.219C442.807,139.763 440.011,137.586 437.626,135.687C435.239,133.787 433.192,131.921 431.494,130.087C429.795,128.253 428.42,126.158 427.372,123.8C426.328,121.442 425.804,118.79 425.804,115.843C425.804,112.47 426.565,109.441 428.089,106.756C429.607,104.071 432.103,101.926 435.575,100.322C439.046,98.717 443.499,97.915 448.93,97.915L477.215,97.915Z" style="fill:rgb(190,30,45);fillRule:nonzero;"/>
            <path d="M63.449,248.854L63.449,237.278L60.555,237.278L60.555,200.984L41.986,200.984L40.479,231.792C40.418,233.058 40.238,234.083 40.057,234.927C39.816,235.771 39.394,236.555 38.851,237.278L36.259,237.278L36.259,248.854L42.709,248.854L42.709,243.186L56.877,243.186L56.877,248.854L63.449,248.854ZM48.196,207.013L53.803,207.013L53.803,237.278L45.121,237.278C45.664,236.736 46.146,236.072 46.447,235.289C46.749,234.505 46.93,233.299 46.99,231.671L48.196,207.013Z" style="fill:rgb(190,30,45);fillRule:nonzero;"/>
            <path d="M79.486,223.834L82.199,213.464L82.199,243.186L88.167,243.186L88.167,200.984L80.872,200.984L75.446,218.408L73.035,227.692L73.035,200.984L67.126,200.984L67.126,243.186L73.939,243.186L79.486,223.834Z" style="fill:rgb(190,30,45);fillRule:nonzero;"/>
            <path d="M105.832,227.451L105.832,233.48C105.832,234.987 105.53,236.072 104.928,236.675C104.264,237.278 103.42,237.58 102.395,237.58C101.371,237.58 100.526,237.278 99.924,236.675C99.26,236.072 98.959,234.987 98.959,233.48L98.959,210.691C98.959,209.184 99.26,208.098 99.924,207.435C100.526,206.832 101.371,206.531 102.395,206.531C103.42,206.531 104.264,206.832 104.928,207.435C105.53,208.098 105.832,209.184 105.832,210.691L105.832,215.212L112.102,215.212L112.102,211.113C112.102,207.676 111.258,205.084 109.63,203.215C107.942,201.406 105.47,200.502 102.215,200.502C98.959,200.502 96.487,201.406 94.859,203.215C93.171,205.084 92.327,207.676 92.327,211.113L92.327,233.058C92.327,236.494 93.171,239.087 94.859,240.896C96.487,242.764 98.959,243.669 102.215,243.669C105.47,243.669 107.942,242.764 109.63,240.896C111.258,239.087 112.102,236.494 112.102,233.058L112.102,227.451L105.832,227.451Z" style="fill:rgb(190,30,45);fillRule:nonzero;"/>
            <path d="M114.212,207.013L121.145,207.013L121.145,243.186L127.777,243.186L127.777,207.013L134.71,207.013L134.71,200.984L114.212,200.984L114.212,207.013Z" style="fill:rgb(190,30,45);fillRule:nonzero;"/>
            <path d="M137.604,200.984L137.604,243.186L144.236,243.186L144.236,227.331L147.371,227.331C150.687,227.331 153.219,226.426 154.847,224.678C156.475,222.929 157.258,220.337 157.258,216.901L157.258,211.414C157.258,207.978 156.475,205.385 154.847,203.637C153.219,201.889 150.687,200.984 147.371,200.984L137.604,200.984ZM147.371,207.013C148.396,207.013 149.24,207.315 149.783,207.857C150.325,208.4 150.627,209.485 150.627,210.992L150.627,217.323C150.627,218.83 150.325,219.915 149.783,220.458C149.24,221 148.396,221.302 147.371,221.302L144.236,221.302L144.236,207.013L147.371,207.013Z" style="fill:rgb(190,30,45);fillRule:nonzero;"/>
            <path d="M172.692,223.834L175.405,213.464L175.405,243.186L181.374,243.186L181.374,200.984L174.079,200.984L168.653,218.408L166.241,227.692L166.241,200.984L160.333,200.984L160.333,243.186L167.146,243.186L172.692,223.834Z" style="fill:rgb(190,30,45);fillRule:nonzero;"/>
            <path d="M196.627,243.186C199.943,243.186 202.475,242.282 204.163,240.534C205.791,238.785 206.635,236.193 206.635,232.757L206.635,228.235C206.635,224.798 205.791,222.206 204.163,220.458C202.475,218.709 199.943,217.805 196.627,217.805L192.769,217.805L192.769,207.013L204.706,207.013L204.706,200.984L186.137,200.984L186.137,243.186L196.627,243.186ZM192.769,237.158L192.769,223.834L196.627,223.834C197.652,223.834 198.496,224.135 199.099,224.678C199.702,225.22 200.003,226.306 200.003,227.813L200.003,233.179C200.003,234.686 199.702,235.771 199.099,236.314C198.496,236.856 197.652,237.158 196.627,237.158L192.769,237.158Z" style="fill:rgb(190,30,45);fillRule:nonzero;"/>
            <path d="M220.863,243.186C224.179,243.186 226.711,242.282 228.339,240.534C229.967,238.785 230.751,236.193 230.751,232.757L230.751,227.27C230.751,223.834 229.967,221.241 228.339,219.493C226.711,217.745 224.179,216.84 220.863,216.84L217.728,216.84L217.728,200.984L211.096,200.984L211.096,243.186L220.863,243.186ZM217.728,237.158L217.728,222.869L220.863,222.869C221.888,222.869 222.732,223.171 223.275,223.713C223.817,224.256 224.119,225.341 224.119,226.848L224.119,233.179C224.119,234.686 223.817,235.771 223.275,236.314C222.732,236.856 221.888,237.158 220.863,237.158L217.728,237.158Z" style="fill:rgb(190,30,45);fillRule:nonzero;"/>
            <path d="M246.301,233.058C246.301,236.494 247.145,239.087 248.893,240.896C250.641,242.764 253.113,243.669 256.369,243.669C259.624,243.669 262.096,242.764 263.845,240.896C265.593,239.087 266.437,236.494 266.437,233.058L266.437,211.113C266.437,207.676 265.593,205.084 263.845,203.215C262.096,201.406 259.624,200.502 256.369,200.502C253.113,200.502 250.641,201.406 248.893,203.215C247.145,205.084 246.301,207.676 246.301,211.113L246.301,219.071L241.357,219.071L241.357,200.984L234.725,200.984L234.725,243.186L241.357,243.186L241.357,225.1L246.301,225.1L246.301,233.058ZM252.932,210.691C252.932,209.184 253.234,208.098 253.897,207.435C254.5,206.832 255.344,206.531 256.369,206.531C257.394,206.531 258.238,206.832 258.901,207.435C259.504,208.098 259.805,209.184 259.805,210.691L259.805,233.48C259.805,234.987 259.504,236.072 258.901,236.675C258.238,237.338 257.394,237.64 256.369,237.64C255.344,237.64 254.5,237.338 253.897,236.675C253.234,236.072 252.932,234.987 252.932,233.48L252.932,210.691Z" style="fill:rgb(190,30,45);fillRule:nonzero;"/>
            <path d="M270.838,243.187L288.202,243.187L288.202,248.854L294.653,248.854L294.653,237.278L291.759,237.278L291.759,200.984L285.006,200.984L285.006,237.158L277.47,237.158L277.47,200.984L270.838,200.984L270.838,243.187Z" style="fill:rgb(190,30,45);fillRule:nonzero;"/>
            <path d="M310.628,223.834L313.341,213.464L313.341,243.187L319.31,243.187L319.31,200.984L312.015,200.984L306.589,218.408L304.177,227.692L304.177,200.984L298.269,200.984L298.269,243.187L305.082,243.187L310.628,223.834Z" style="fill:rgb(190,30,45);fillRule:nonzero;"/>
            <path d="M329.558,243.187C329.618,242.885 329.739,242.644 329.799,242.403C329.859,242.162 329.98,241.86 330.04,241.498C330.1,241.137 330.1,240.654 330.161,240.112C330.161,239.569 330.161,238.846 330.161,238.002L330.161,231.37C330.161,229.38 330.522,227.994 331.186,227.21C331.849,226.426 332.994,226.004 334.502,226.004L336.793,226.004L336.793,243.187L343.424,243.187L343.424,200.984L333.416,200.984C329.98,200.984 327.448,201.768 325.941,203.396C324.373,205.024 323.589,207.435 323.589,210.691L323.589,214.007C323.589,218.348 325.036,221.181 327.93,222.568C326.242,223.231 325.096,224.376 324.494,225.884C323.83,227.451 323.529,229.32 323.529,231.551L323.529,238.062C323.529,239.087 323.469,239.991 323.408,240.775C323.348,241.559 323.107,242.403 322.806,243.187L329.558,243.187ZM336.793,207.013L336.793,219.975L334.2,219.975C332.934,219.975 331.969,219.674 331.306,219.011C330.583,218.348 330.221,217.202 330.221,215.514L330.221,211.354C330.221,209.847 330.522,208.701 331.065,208.038C331.608,207.375 332.452,207.013 333.597,207.013L336.793,207.013Z" style="fill:rgb(190,30,45);fillRule:nonzero;"/>
            <path d="M360.125,211.595L355.422,211.595L355.422,219.734L347.343,219.734L347.343,224.437L355.422,224.437L355.422,232.696L360.125,232.696L360.125,224.437L368.203,224.437L368.203,219.734L360.125,219.734L360.125,211.595Z" style="fill:rgb(190,30,45);fillRule:nonzero;"/>
            <path d="M52.838,310.518L59.651,310.518L50.426,287.126L59.651,268.316L53.019,268.316L44.337,286.704L44.337,268.316L37.705,268.316L37.705,310.518L44.337,310.518L44.337,297.556L46.387,293.698L52.838,310.518Z" style="fill:rgb(190,30,45);fillRule:nonzero;"/>
            <path d="M68.754,278.023C68.754,276.516 69.055,275.43 69.718,274.767C70.321,274.164 71.165,273.863 72.19,273.863C73.215,273.863 74.059,274.164 74.722,274.767C75.325,275.43 75.627,276.516 75.627,278.023L75.627,300.812C75.627,302.319 75.325,303.404 74.722,304.007C74.059,304.671 73.215,304.972 72.19,304.972C71.165,304.972 70.321,304.671 69.718,304.007C69.055,303.404 68.754,302.319 68.754,300.812L68.754,278.023ZM62.122,300.39C62.122,303.826 62.966,306.419 64.714,308.228C66.463,310.097 68.935,311.001 72.19,311.001C75.446,311.001 77.918,310.097 79.666,308.228C81.414,306.419 82.258,303.826 82.258,300.39L82.258,278.445C82.258,275.008 81.414,272.416 79.666,270.547C77.918,268.738 75.446,267.834 72.19,267.834C68.935,267.834 66.463,268.738 64.714,270.547C62.966,272.416 62.122,275.008 62.122,278.445L62.122,300.39Z" style="fill:rgb(190,30,45);fillRule:nonzero;"/>
            <path d="M93.17,292.432L100.706,292.432L100.706,310.519L107.459,310.519L107.459,268.316L100.706,268.316L100.706,286.403L93.17,286.403L93.17,268.316L86.538,268.316L86.538,310.519L93.17,310.519L93.17,292.432Z" style="fill:rgb(190,30,45);fillRule:nonzero;"/>
            <path d="M110.351,274.345L117.285,274.345L117.285,310.519L123.916,310.519L123.916,274.345L130.85,274.345L130.85,268.316L110.351,268.316L110.351,274.345Z" style="fill:rgb(190,30,45);fillRule:nonzero;"/>
            <path d="M133.743,268.316L133.743,310.519L140.375,310.519L140.375,294.663L143.51,294.663C146.826,294.663 149.358,293.758 150.986,292.01C152.614,290.262 153.397,287.669 153.397,284.233L153.397,278.746C153.397,275.31 152.614,272.717 150.986,270.969C149.358,269.221 146.826,268.316 143.51,268.316L133.743,268.316ZM143.51,274.345C144.535,274.345 145.379,274.647 145.921,275.189C146.464,275.732 146.765,276.817 146.765,278.324L146.765,284.655C146.765,286.162 146.464,287.247 145.921,287.79C145.379,288.332 144.535,288.634 143.51,288.634L140.375,288.634L140.375,274.345L143.51,274.345Z" style="fill:rgb(190,30,45);fillRule:nonzero;"/>
            <path d="M171.183,268.316L161.476,268.316L154.724,310.519L160.813,310.519L161.958,302.862L170.097,302.862L171.243,310.519L177.935,310.519L171.183,268.316ZM165.998,275.792L169.193,297.135L162.802,297.135L165.998,275.792Z" style="fill:rgb(190,30,45);fillRule:nonzero;"/>
            <path d="M196.142,310.519L202.954,310.519L193.73,287.127L202.954,268.316L196.323,268.316L187.641,286.705L187.641,268.316L181.009,268.316L181.009,310.519L187.641,310.519L187.641,297.557L189.691,293.698L196.142,310.519Z" style="fill:rgb(190,30,45);fillRule:nonzero;"/>
            <path d="M204.039,274.345L210.972,274.345L210.972,310.519L217.604,310.519L217.604,274.345L224.537,274.345L224.537,268.316L204.039,268.316L204.039,274.345Z" style="fill:rgb(190,30,45);fillRule:nonzero;"/>
            <path d="M234.062,292.432L241.598,292.432L241.598,310.519L248.35,310.519L248.35,268.317L241.598,268.317L241.598,286.403L234.062,286.403L234.062,268.317L227.43,268.317L227.43,310.519L234.062,310.519L234.062,292.432Z" style="fill:rgb(190,30,45);fillRule:nonzero;"/>
            <path d="M259.261,278.023C259.261,276.516 259.563,275.431 260.226,274.767C260.829,274.165 261.673,273.863 262.698,273.863C263.723,273.863 264.567,274.165 265.23,274.767C265.833,275.431 266.134,276.516 266.134,278.023L266.134,300.812C266.134,302.319 265.833,303.405 265.23,304.008C264.567,304.671 263.723,304.972 262.698,304.972C261.673,304.972 260.829,304.671 260.226,304.008C259.563,303.405 259.261,302.319 259.261,300.812L259.261,278.023ZM252.63,300.39C252.63,303.827 253.474,306.419 255.222,308.228C256.97,310.097 259.442,311.001 262.698,311.001C265.954,311.001 268.425,310.097 270.174,308.228C271.922,306.419 272.766,303.827 272.766,300.39L272.766,278.445C272.766,275.009 271.922,272.416 270.174,270.547C268.425,268.739 265.954,267.834 262.698,267.834C259.442,267.834 256.97,268.739 255.222,270.547C253.474,272.416 252.63,275.009 252.63,278.445L252.63,300.39Z" style="fill:rgb(190,30,45);fillRule:nonzero;"/>
            <path d="M283.678,274.345L295.133,274.345L295.133,268.317L277.046,268.317L277.046,310.519L295.133,310.519L295.133,304.49L283.678,304.49L283.678,292.131L292.782,292.131L292.782,286.102L283.678,286.102L283.678,274.345Z" style="fill:rgb(190,30,45);fillRule:nonzero;"/>
            <path d="M44.337,341.677L51.873,341.677L51.873,377.85L58.626,377.85L58.626,335.648L37.705,335.648L37.705,377.85L44.337,377.85L44.337,341.677Z" style="fill:rgb(190,30,45);fillRule:nonzero;"/>
            <path d="M63.448,335.648L63.448,377.851L70.08,377.851L70.08,361.995L73.215,361.995C76.531,361.995 79.063,361.09 80.691,359.342C82.319,357.593 83.102,355.001 83.102,351.565L83.102,346.078C83.102,342.642 82.319,340.049 80.691,338.301C79.063,336.553 76.531,335.648 73.215,335.648L63.448,335.648ZM73.215,341.677C74.24,341.677 75.084,341.979 75.627,342.521C76.169,343.064 76.471,344.149 76.471,345.656L76.471,351.987C76.471,353.494 76.169,354.579 75.627,355.122C75.084,355.664 74.24,355.966 73.215,355.966L70.08,355.966L70.08,341.677L73.215,341.677Z" style="fill:rgb(190,30,45);fillRule:nonzero;"/>
            <path d="M92.266,345.355C92.266,343.848 92.567,342.762 93.23,342.099C93.833,341.496 94.677,341.195 95.702,341.195C96.727,341.195 97.571,341.496 98.234,342.099C98.837,342.762 99.139,343.848 99.139,345.355L99.139,368.144C99.139,369.651 98.837,370.736 98.234,371.339C97.571,372.003 96.727,372.304 95.702,372.304C94.677,372.304 93.833,372.003 93.23,371.339C92.567,370.736 92.266,369.651 92.266,368.144L92.266,345.355ZM85.634,367.722C85.634,371.158 86.478,373.751 88.226,375.56C89.975,377.429 92.447,378.333 95.702,378.333C98.958,378.333 101.43,377.429 103.178,375.56C104.927,373.751 105.771,371.158 105.771,367.722L105.771,345.777C105.771,342.34 104.927,339.748 103.178,337.879C101.43,336.07 98.958,335.166 95.702,335.166C92.447,335.166 89.975,336.07 88.226,337.879C86.478,339.748 85.634,342.34 85.634,345.777L85.634,367.722Z" style="fill:rgb(190,30,45);fillRule:nonzero;"/>
            <path d="M122.41,358.498L125.123,348.128L125.123,377.851L131.092,377.851L131.092,335.648L123.797,335.648L118.371,353.072L115.959,362.356L115.959,335.648L110.051,335.648L110.051,377.851L116.864,377.851L122.41,358.498Z" style="fill:rgb(190,30,45);fillRule:nonzero;"/>
            <path d="M148.575,348.369C148.575,350.057 148.213,351.203 147.55,351.866C146.826,352.529 145.862,352.831 144.596,352.831L142.606,352.831L142.606,358.86L144.234,358.86C145.741,358.86 146.887,359.282 147.55,360.065C148.213,360.849 148.575,362.236 148.575,364.225L148.575,367.541C148.575,369.41 148.273,370.676 147.67,371.339C147.007,372.003 146.163,372.304 145.138,372.304C144.113,372.304 143.269,372.003 142.666,371.339C142.003,370.737 141.702,369.651 141.702,368.144L141.702,363.08L135.432,363.08L135.432,367.722C135.432,371.159 136.276,373.751 137.964,375.56C139.592,377.429 142.063,378.333 145.319,378.333C148.575,378.333 151.046,377.429 152.735,375.56C154.362,373.751 155.206,371.159 155.206,367.722L155.206,364.406C155.206,362.236 154.845,360.367 154.181,358.86C153.458,357.352 152.252,356.267 150.564,355.544C153.639,354.278 155.206,351.384 155.206,346.862L155.206,345.777C155.206,342.34 154.362,339.748 152.735,337.879C151.046,336.07 148.575,335.166 145.319,335.166C142.063,335.166 139.652,336.07 138.024,337.819C136.396,339.627 135.552,342.22 135.552,345.656L135.552,348.791L141.641,348.791L141.641,345.355C141.641,343.848 141.943,342.762 142.606,342.099C143.269,341.496 144.113,341.195 145.138,341.195C146.163,341.195 147.007,341.496 147.67,342.16C148.273,342.823 148.575,344.149 148.575,346.018L148.575,348.369Z" style="fill:rgb(190,30,45);fillRule:nonzero;"/>
            <path d="M159.668,335.648L159.668,377.851L170.098,377.851C173.414,377.851 175.946,377.007 177.634,375.258C179.322,373.57 180.166,371.098 180.166,367.843L180.166,364.406C180.166,362.176 179.804,360.246 179.081,358.679C178.297,357.172 177.031,356.026 175.222,355.363C176.73,354.7 177.815,353.615 178.478,352.228C179.141,350.841 179.503,349.033 179.503,346.862L179.503,345.355C179.503,342.099 178.719,339.688 177.212,338.06C175.644,336.432 173.112,335.648 169.676,335.648L159.668,335.648ZM169.254,358.86C170.761,358.86 171.907,359.221 172.57,359.945C173.233,360.668 173.534,361.995 173.534,363.984L173.534,367.662C173.534,369.229 173.233,370.315 172.69,370.917C172.087,371.52 171.243,371.822 170.098,371.822L166.3,371.822L166.3,358.86L169.254,358.86ZM169.495,341.677C170.64,341.677 171.545,342.039 172.087,342.702C172.63,343.365 172.871,344.511 172.871,346.018L172.871,348.369C172.871,350.057 172.509,351.203 171.846,351.866C171.123,352.529 170.158,352.831 168.892,352.831L166.3,352.831L166.3,341.677L169.495,341.677Z" style="fill:rgb(190,30,45);fillRule:nonzero;"/>
            <path d="M190.234,345.355C190.234,343.848 190.535,342.763 191.198,342.099C191.801,341.496 192.645,341.195 193.67,341.195C194.695,341.195 195.539,341.496 196.202,342.099C196.805,342.763 197.107,343.848 197.107,345.355L197.107,368.144C197.107,369.651 196.805,370.737 196.202,371.339C195.539,372.003 194.695,372.304 193.67,372.304C192.645,372.304 191.801,372.003 191.198,371.339C190.535,370.737 190.234,369.651 190.234,368.144L190.234,345.355ZM183.602,367.722C183.602,371.159 184.446,373.751 186.194,375.56C187.943,377.429 190.415,378.333 193.67,378.333C196.926,378.333 199.398,377.429 201.146,375.56C202.894,373.751 203.738,371.159 203.738,367.722L203.738,345.777C203.738,342.341 202.894,339.748 201.146,337.879C199.398,336.07 196.926,335.166 193.67,335.166C190.415,335.166 187.943,336.07 186.194,337.879C184.446,339.748 183.602,342.341 183.602,345.777L183.602,367.722Z" style="fill:rgb(190,30,45);fillRule:nonzero;"/>
            <path d="M233.762,383.518L233.762,371.942L230.868,371.942L230.868,335.648L212.299,335.648L210.792,366.456C210.731,367.722 210.551,368.747 210.37,369.591C210.129,370.435 209.707,371.219 209.164,371.942L206.572,371.942L206.572,383.518L213.022,383.518L213.022,377.851L227.19,377.851L227.19,383.518L233.762,383.518ZM218.509,341.677L224.116,341.677L224.116,371.942L215.434,371.942C215.977,371.4 216.459,370.737 216.76,369.953C217.062,369.169 217.243,367.963 217.303,366.336L218.509,341.677Z" style="fill:rgb(190,30,45);fillRule:nonzero;"/>
            <path d="M250.401,362.115L250.401,368.144C250.401,369.651 250.1,370.737 249.497,371.34C248.833,371.942 247.989,372.244 246.965,372.244C245.94,372.244 245.096,371.942 244.493,371.34C243.83,370.737 243.528,369.651 243.528,368.144L243.528,345.355C243.528,343.848 243.83,342.763 244.493,342.099C245.096,341.497 245.94,341.195 246.965,341.195C247.989,341.195 248.833,341.497 249.497,342.099C250.1,342.763 250.401,343.848 250.401,345.355L250.401,349.877L256.671,349.877L256.671,345.777C256.671,342.341 255.827,339.748 254.199,337.879C252.511,336.071 250.039,335.166 246.784,335.166C243.528,335.166 241.056,336.071 239.428,337.879C237.74,339.748 236.896,342.341 236.896,345.777L236.896,367.722C236.896,371.159 237.74,373.751 239.428,375.56C241.056,377.429 243.528,378.333 246.784,378.333C250.039,378.333 252.511,377.429 254.199,375.56C255.827,373.751 256.671,371.159 256.671,367.722L256.671,362.115L250.401,362.115Z" style="fill:rgb(190,30,45);fillRule:nonzero;"/>
            <path d="M258.78,341.677L265.713,341.677L265.713,377.851L272.345,377.851L272.345,341.677L279.278,341.677L279.278,335.649L258.78,335.649L258.78,341.677Z" style="fill:rgb(190,30,45);fillRule:nonzero;"/>
            <path d="M282.171,335.649L282.171,377.851L292.601,377.851C295.917,377.851 298.449,377.007 300.137,375.258C301.826,373.57 302.67,371.098 302.67,367.843L302.67,364.406C302.67,362.176 302.308,360.246 301.584,358.679C300.801,357.172 299.535,356.026 297.726,355.363C299.233,354.7 300.318,353.615 300.981,352.228C301.645,350.841 302.006,349.033 302.006,346.862L302.006,345.355C302.006,342.099 301.223,339.688 299.715,338.06C298.148,336.432 295.616,335.649 292.179,335.649L282.171,335.649ZM291.757,358.86C293.265,358.86 294.41,359.222 295.073,359.945C295.736,360.668 296.038,361.995 296.038,363.984L296.038,367.662C296.038,369.229 295.736,370.315 295.194,370.918C294.591,371.52 293.747,371.822 292.601,371.822L288.803,371.822L288.803,358.86L291.757,358.86ZM291.998,341.677C293.144,341.677 294.048,342.039 294.591,342.702C295.133,343.366 295.375,344.511 295.375,346.018L295.375,348.37C295.375,350.058 295.013,351.203 294.35,351.866C293.626,352.529 292.662,352.831 291.396,352.831L288.803,352.831L288.803,341.677L291.998,341.677Z" style="fill:rgb(190,30,45);fillRule:nonzero;"/>
            <path d="M312.738,345.355C312.738,343.848 313.039,342.763 313.703,342.1C314.306,341.497 315.15,341.195 316.175,341.195C317.199,341.195 318.043,341.497 318.707,342.1C319.31,342.763 319.611,343.848 319.611,345.355L319.611,368.144C319.611,369.652 319.31,370.737 318.707,371.34C318.043,372.003 317.199,372.304 316.175,372.304C315.15,372.304 314.306,372.003 313.703,371.34C313.039,370.737 312.738,369.652 312.738,368.144L312.738,345.355ZM306.106,367.722C306.106,371.159 306.95,373.751 308.699,375.56C310.447,377.429 312.919,378.333 316.175,378.333C319.43,378.333 321.902,377.429 323.65,375.56C325.399,373.751 326.243,371.159 326.243,367.722L326.243,345.777C326.243,342.341 325.399,339.748 323.65,337.879C321.902,336.071 319.43,335.166 316.175,335.166C312.919,335.166 310.447,336.071 308.699,337.879C306.95,339.748 306.106,342.341 306.106,345.777L306.106,367.722Z" style="fill:rgb(190,30,45);fillRule:nonzero;"/>
        </g>
    </g>
</svg>
